<svg width="100" height="100" viewBox="0 0 100 100" fill="none" xmlns="http://www.w3.org/2000/svg">
<circle cx="50" cy="50" r="50" fill="#A855F7"/>
<path d="M27.5 21C23.3579 21 20 24.3579 20 28.5V76.4734C20 78.1438 22.0196 78.9804 23.2008 77.7992L33.9017 67.0984C34.6049 66.3951 35.5587 66 36.5533 66H72.5C76.6421 66 80 62.6421 80 58.5V28.5C80 24.3579 76.6421 21 72.5 21H27.5Z" fill="white"/>
<path d="M41.5 38H28.5C28.2239 38 28 38.2239 28 38.5C28 38.7761 28.2239 39 28.5 39H41.5C41.7761 39 42 38.7761 42 38.5C42 38.2239 41.7761 38 41.5 38Z" stroke="#A855F7" stroke-opacity="0.58"/>
<path d="M41.5 42H33.5C33.2239 42 33 42.2239 33 42.5C33 42.7761 33.2239 43 33.5 43H41.5C41.7761 43 42 42.7761 42 42.5C42 42.2239 41.7761 42 41.5 42Z" stroke="#A855F7" stroke-opacity="0.58"/>
<path d="M41.5 46H36.5C36.2239 46 36 46.2239 36 46.5C36 46.7761 36.2239 47 36.5 47H41.5C41.7761 47 42 46.7761 42 46.5C42 46.2239 41.7761 46 41.5 46Z" stroke="#A855F7" stroke-opacity="0.58"/>
<path d="M42 31.8125C42 31.2947 42.4197 30.875 42.9375 30.875H45.75C46.1802 30.875 46.5552 31.1678 46.6595 31.5851L47.4195 34.625H69.1875C69.4684 34.625 69.7344 34.7509 69.9125 34.9681C70.0906 35.1853 70.1619 35.4709 70.1068 35.7464L68.2318 45.1214C68.1476 45.5423 67.7882 45.8523 67.3595 45.8738L49.7404 46.7575L50.2781 49.625H66.375C66.8928 49.625 67.3125 50.0447 67.3125 50.5625C67.3125 51.0803 66.8928 51.5 66.375 51.5H64.5H51.375H49.5C49.0489 51.5 48.6617 51.1787 48.5786 50.7353L45.7712 35.7628L45.018 32.75H42.9375C42.4197 32.75 42 32.3303 42 31.8125ZM47.8171 36.5L49.3917 44.8977L66.5364 44.0377L68.0439 36.5H47.8171ZM51.375 51.5C49.3039 51.5 47.625 53.1789 47.625 55.25C47.625 57.3211 49.3039 59 51.375 59C53.4461 59 55.125 57.3211 55.125 55.25C55.125 53.1789 53.4461 51.5 51.375 51.5ZM64.5 51.5C62.4289 51.5 60.75 53.1789 60.75 55.25C60.75 57.3211 62.4289 59 64.5 59C66.5711 59 68.25 57.3211 68.25 55.25C68.25 53.1789 66.5711 51.5 64.5 51.5ZM51.375 53.375C52.4105 53.375 53.25 54.2145 53.25 55.25C53.25 56.2855 52.4105 57.125 51.375 57.125C50.3395 57.125 49.5 56.2855 49.5 55.25C49.5 54.2145 50.3395 53.375 51.375 53.375ZM64.5 53.375C65.5355 53.375 66.375 54.2145 66.375 55.25C66.375 56.2855 65.5355 57.125 64.5 57.125C63.4645 57.125 62.625 56.2855 62.625 55.25C62.625 54.2145 63.4645 53.375 64.5 53.375Z" fill="#A855F7"/>
</svg>
