<svg width="99" height="67" viewBox="0 0 99 67" fill="none" xmlns="http://www.w3.org/2000/svg">
<g clip-path="url(#clip0_58102_96)">
<path d="M76.5407 51.6814C61.7622 56.346 45.9924 57.3713 30.7784 54.2975C26.3325 53.3992 21.9623 52.1732 17.6834 50.6714C16.4094 50.2242 14.9482 51.1795 14.6081 52.4175C14.2291 53.7968 15.0755 55.044 16.3542 55.4928C31.7884 60.9098 48.3516 62.3959 64.492 59.7263C69.0241 58.9767 73.49 57.8853 77.8699 56.5028C80.9276 55.5377 79.6216 50.709 76.5407 51.6814Z" fill="#A855F7"/>
<path d="M23.6361 62.2703L21.0503 57.4061L19.7205 54.9045L19.0555 53.6537C18.9691 53.491 18.8864 53.2304 18.76 53.0978C19.2745 53.6378 17.3346 55.2514 18.2469 54.9232C19.0523 54.6335 19.8349 54.0809 20.5915 53.6797C21.419 53.2408 22.2464 52.8019 23.0739 52.363C24.7289 51.4851 26.3839 50.6073 28.0389 49.7295C29.1959 49.1159 29.6465 47.4116 28.9358 46.3091C28.1772 45.1326 26.7528 44.7558 25.5153 45.4122C23.5845 46.4363 21.6537 47.4604 19.7229 48.4845C18.8034 48.9722 17.884 49.4599 16.9646 49.9475C15.8167 50.5563 14.6204 51.0594 14.0831 52.3327C13.534 53.6338 14.0464 54.8759 14.6643 56.0383L16.2158 58.9569C17.2501 60.9026 18.2845 62.8482 19.3188 64.7939C19.9335 65.9503 21.636 66.4021 22.7393 65.6908C23.9149 64.9328 24.2937 63.5072 23.6361 62.2703Z" fill="#A855F7"/>
</g>
<path d="M13.2348 37.562C22.5072 37.562 27.8169 32.3314 27.8169 23.0591C27.8169 13.8661 22.5072 8.63553 13.2348 8.63553H3.56627V37.562H13.2348ZM6.8948 11.4885H13.0763C20.6051 11.4885 24.3299 15.3718 24.3299 23.0591C24.3299 30.8257 20.5259 34.709 13.0763 34.709H6.8948V11.4885ZM49.2938 20.6816C48.0258 18.1456 45.5691 16.6398 42.399 16.6398C37.01 16.6398 33.3645 20.9986 33.3645 27.3387C33.3645 33.6787 36.9307 37.879 42.399 37.879C45.5691 37.879 48.1051 36.4525 49.2938 33.8372V37.562H52.5431V17.1153H49.2938V20.6816ZM49.2938 27.2594C49.2938 32.2522 47.0748 35.1052 43.033 35.1052C38.9913 35.1052 36.693 32.3314 36.693 27.3387C36.693 22.3459 38.9913 19.4136 43.033 19.4136C47.0748 19.4136 49.2938 22.1874 49.2938 27.2594ZM56.4264 35.1845C58.4076 36.928 61.1022 37.879 64.5892 37.879C69.5027 37.879 72.5935 35.5807 72.5935 32.0144C72.5935 29.1614 70.7707 27.4179 66.9667 26.4669L63.5589 25.5951C61.3399 25.1196 60.3889 24.1686 60.3889 22.5044C60.3889 20.5231 62.0532 19.3343 64.9854 19.3343C67.1252 19.3343 69.1857 20.1269 71.0877 21.7119L72.1972 19.3343C70.4537 17.5908 67.8385 16.6398 64.9854 16.6398C60.2304 16.6398 57.1396 19.1758 57.1396 22.7421C57.1396 25.4366 59.0416 27.4179 62.4494 28.2104L65.9364 29.0029C68.3932 29.6369 69.4235 30.5087 69.4235 32.0937C69.4235 34.0749 67.7592 35.1845 64.7477 35.1845C61.8947 35.1845 59.7549 34.5505 57.5359 32.8069L56.4264 35.1845ZM95.1799 24.7234C95.1799 19.3343 92.7231 16.6398 87.8096 16.6398C84.7981 16.6398 82.2621 17.9871 80.9148 20.4439V7.68452H77.6655V37.562H80.9148V25.9121C80.9148 21.9496 83.4508 19.4136 87.1756 19.4136C90.4249 19.4136 91.9306 21.1571 91.9306 24.8819V37.562H95.1799V24.7234Z" fill="white"/>
<defs>
<clipPath id="clip0_58102_96">
<rect width="65.7606" height="20.94" fill="white" transform="matrix(-1 0 0 -1 79.6104 66.0315)"/>
</clipPath>
</defs>
</svg>
